<?xml version="1.0" encoding="utf-8"?><!DOCTYPE svg PUBLIC "-//W3C//DTD SVG 1.1//EN" "http://www.w3.org/Graphics/SVG/1.1/DTD/svg11.dtd"><svg xmlns="http://www.w3.org/2000/svg" width="300" height="300" viewBox="0 0 37 37"><path fill="#ffffff" d="M0 0h37v37H0z"/><path stroke="#000000" d="M4 4.5h7m4 0h3m1 0h3m1 0h1m2 0h7M4 5.5h1m5 0h1m2 0h3m5 0h1m2 0h1m1 0h1m5 0h1M4 6.5h1m1 0h3m1 0h1m1 0h4m1 0h3m4 0h1m1 0h1m1 0h3m1 0h1M4 7.5h1m1 0h3m1 0h1m1 0h4m2 0h2m1 0h1m1 0h1m2 0h1m1 0h3m1 0h1M4 8.5h1m1 0h3m1 0h1m1 0h4m1 0h1m5 0h2m1 0h1m1 0h3m1 0h1M4 9.5h1m5 0h1m1 0h1m2 0h1m1 0h1m1 0h1m1 0h2m1 0h1m1 0h1m5 0h1M4 10.5h7m1 0h1m1 0h1m1 0h1m1 0h1m1 0h1m1 0h1m1 0h1m1 0h7M12 11.5h3m2 0h1m1 0h1m2 0h3M4 12.5h1m1 0h5m4 0h2m2 0h3m1 0h1m2 0h5M5 13.5h2m1 0h1m2 0h3m5 0h1m2 0h7m3 0h1M4 14.5h2m1 0h1m2 0h2m2 0h2m2 0h2m4 0h3M8 15.5h2m1 0h1m3 0h1m1 0h1m2 0h1m2 0h1m3 0h1m1 0h1m1 0h1M5 16.5h4m1 0h1m4 0h1m5 0h1m7 0h2M4 17.5h1m1 0h3m3 0h3m1 0h1m5 0h5m1 0h1m3 0h1M5 18.5h1m1 0h1m1 0h2m2 0h4m2 0h3m3 0h1m1 0h1m1 0h2M7 19.5h1m1 0h1m4 0h3m2 0h2m1 0h3m2 0h2m2 0h1M4 20.5h2m1 0h1m2 0h3m1 0h2m3 0h1m1 0h3m3 0h1m1 0h2M4 21.5h1m2 0h3m1 0h1m1 0h1m1 0h1m1 0h1m2 0h2m1 0h1m1 0h4m1 0h1m1 0h1M4 22.5h1m2 0h1m2 0h1m4 0h5m6 0h2m2 0h1M4 23.5h1m4 0h1m1 0h2m2 0h3m1 0h2m2 0h1m1 0h4m2 0h1M4 24.5h1m1 0h1m1 0h1m1 0h1m7 0h2m1 0h1m2 0h5m1 0h3M12 25.5h2m1 0h1m4 0h1m2 0h2m3 0h5M4 26.5h7m2 0h1m1 0h2m2 0h2m1 0h3m1 0h1m1 0h3M4 27.5h1m5 0h1m1 0h1m1 0h1m3 0h1m1 0h1m2 0h2m3 0h1m2 0h2M4 28.5h1m1 0h3m1 0h1m1 0h5m4 0h1m2 0h5m1 0h2M4 29.5h1m1 0h3m1 0h1m1 0h2m2 0h3m1 0h1m2 0h1m3 0h1m1 0h4M4 30.5h1m1 0h3m1 0h1m1 0h1m3 0h7m2 0h7M4 31.5h1m5 0h1m2 0h1m2 0h3m3 0h1m1 0h1m1 0h2m1 0h1m1 0h1M4 32.5h7m1 0h1m1 0h1m1 0h1m2 0h1m1 0h1m1 0h1m1 0h6"/></svg>