<svg width="840" height="1193" version="1.1" viewBox="0 0 840 1193" encoding="UTF-8" xmlns="http://www.w3.org/2000/svg"><rect x="0" y="0" height="100%" width="100%" fill="#ffffff"></rect><defs>
<g id="diaohao_fu" transform="translate(-50,-50)"><path d="m63.90001,57.81227l-8.81873,0l0,-1.70001l3.45433,0l0,-11.7568l-3.53561,1.04459l0,-1.80243l5.46599,-1.59762l0,14.11224l3.43402,0l0,1.70001l0,0.00001l0,0.00001z" fill="#1b1b1b"></path><rect height="2" width="11" y="46.85897" x="68" stroke-width="33" fill="#1b1b1b"></rect><rect height="2" width="11" y="51.32479" x="68" stroke-width="33" fill="#1b1b1b"></rect></g><g id="diaohao_zimu_f" transform="translate(-50,-50)"><path fill="black" d="m54,43.9362l-6.00514,0l0,5.25113l5.57327,0l0,1.79205l-5.57327,0l0,6.89732l-1.99486,0l0,-15.7534l8,0l0,1.8129z"></path></g><g id="paihao_xian" transform="translate(-50,-50)"><rect fill="#1b1b1b" stroke-width="33" stroke-linejoin="null" stroke-linecap="null" x="51" y="49" width="21" height="2"></rect></g><g id="shuzi_c_bian_4" transform="translate(-50,-50)"><path d="m50.13028,53.52836l-4.87848,0l0,-0.95818l6.44669,-9.7574l1.13291,0l0,9.23452l1.9168,0l0,1.48106l-1.9168,0l0,3.65886l-2.70068,0l0,-3.65886l-0.00045,0zm0,-6.79528l-0.08714,0l-3.39743,5.31422l3.48457,0l0,-5.31422l0,0z" fill="black"></path></g><g id="xiaojiexian" transform="translate(-50,-50)"><rect fill="#ffffff" stroke-width="0" x="45.05" y="35.85" width="9.9" height="28.4"></rect><rect height="29" width="1.5" y="35.5" x="49.25" stroke-width="null" fill="#1b1b1b"></rect></g><g id="shuzi_c_3" transform="translate(-50,-50)"><rect height="17.9" width="11.1" y="41.05" x="44.45" stroke-width="0" fill="#ffffff"></rect><path fill="black" d="m47.99024,49.51211c1.95488,-1.59247 2.8959,-3.00457 2.8242,-4.23684c-0.0728,-1.30343 -0.72481,-1.99072 -1.95542,-2.06409c-1.08611,0 -1.95543,0.65199 -2.60742,1.95543l-0.86876,-0.326c0.94048,-2.46124 2.60741,-3.72882 4.99694,-3.80218c2.24391,0.14617 3.47619,1.15947 3.69351,3.04153c0,1.44905 -0.97743,2.75303 -2.93286,3.91029l0.10867,0c2.60741,0.14618 4.01951,1.70224 4.23684,4.67096c-0.29015,3.98365 -2.60741,6.08305 -6.95237,6.30038c-2.46288,-0.14618 -3.80218,-0.86932 -4.01951,-2.17275c0.07115,-0.86877 0.57864,-1.33929 1.52076,-1.4121c0.57862,0 1.15781,0.3988 1.73809,1.19532c0.57862,0.86877 1.23064,1.30343 1.95543,1.30343c1.52077,-0.14397 2.31672,-1.4121 2.39009,-3.80218c-0.0728,-2.53405 -1.01495,-3.87334 -2.82475,-4.01951c-0.14618,0 -0.29013,0.03751 -0.43466,0.10866c-0.14618,0.07282 -0.29015,0.10866 -0.43466,0.10866l-0.43411,-0.75899z"></path></g><g id="yanyinfu" transform="translate(-50,-50)"><rect height="17.9" width="11.1" y="41.05" x="44.45" stroke-width="0" fill="#ffffff"></rect><rect height="3.2" width="11" y="48.4" x="44.5" stroke-width="null" fill="#1b1b1b"></rect></g><g id="shuzi_c_2" transform="translate(-50,-50)"><rect height="17.9" width="11.1" y="41.05" x="44.45" stroke-width="0" fill="#ffffff"></rect><path fill="black" d="m44.23404,57.96309c0.29169,-0.36531 0.73117,-0.84104 1.31789,-1.42776c4.61288,-4.68482 6.66194,-7.8705 6.15051,-9.55537c-0.07361,-2.34241 -1.0262,-3.55098 -2.85551,-3.6246c-1.68486,0.14779 -2.74564,1.20857 -3.18512,3.18512l-1.09814,0c0.58504,-3.51473 2.45228,-5.34404 5.60115,-5.49184c3.07526,0.21974 4.72275,1.86723 4.9425,4.94249c0.14612,1.90516 -1.13607,3.99158 -3.84435,6.26038c-1.61124,1.46568 -2.85551,2.70996 -3.73447,3.73448l5.27211,0c1.24426,0.07362 1.93918,-0.6213 2.08697,-2.08698l0.8784,0l-0.54879,5.05236l-10.98313,0l0,-0.98827z"></path></g><g id="shuzi_c_1" transform="translate(-50,-50)"><rect height="17.9" width="11.1" y="41.05" x="44.45" stroke-width="0" fill="#ffffff"></rect><path fill="black" d="m51.71225,56.72592c0,0.80306 0.32822,1.2029 0.98409,1.2029l1.85934,0l0,0.98408l-8.96846,0l0,-0.98408l1.74994,0c0.65642,-0.07163 0.98409,-0.43763 0.98409,-1.0935l0,-12.24893c-1.16737,0.65644 -2.26085,1.13125 -3.28105,1.42172l-0.43762,-0.76528c2.18699,-1.09351 4.04689,-2.47802 5.57743,-4.15573l1.53112,0l0,15.63882l0.00111,0l0.00001,0z"></path></g><g id="shuzi_c_6" transform="translate(-50,-50)"><rect height="17.9" width="11.1" y="41.05" x="44.45" stroke-width="0" fill="#ffffff"></rect><path fill="black" d="m54.20902,41.95901c-3.38233,1.22426 -5.39627,3.56153 -6.04348,7.01512c0.93435,-0.64775 1.90543,-0.97109 2.91377,-0.97109c2.94941,0.14523 4.4959,1.90709 4.64057,5.28833c-0.21591,3.59825 -2.05065,5.46696 -5.50423,5.6122c-3.74183,-0.14524 -5.72017,-2.48251 -5.93554,-7.01512c0.28661,-5.82813 3.41632,-9.42473 9.38911,-10.79202l0.53979,0.86257zm-3.99337,7.33899c-0.79243,0 -1.54814,0.32388 -2.26658,0.97108c0,0.07233 0,0.21592 0,0.43183c-0.07233,0.79243 -0.10796,1.51088 -0.10796,2.15862c0,3.45358 0.75517,5.18037 2.26659,5.18037c1.51086,0.07235 2.19368,-1.40291 2.05066,-4.42466c0.14357,-2.94995 -0.50418,-4.38849 -1.94272,-4.31724z"></path></g><g id="shuzi_c_5" transform="translate(-50,-50)"><rect height="17.9" width="11.1" y="41.05" x="44.45" stroke-width="0" fill="#ffffff"></rect><path fill="black" d="m46.03386,41.2363l6.28103,0c0.58697,0 0.91767,-0.1824 0.99153,-0.55116l0.88186,0l-0.44093,3.30586l-6.72194,0l-0.11024,3.4161c0.73358,-0.22047 1.50465,-0.33071 2.31377,-0.33071c3.89339,0.22047 5.95088,2.16774 6.17079,5.84065c-0.29433,3.82066 -2.60865,5.84066 -6.94241,6.06112c-2.42457,-0.07386 -3.71043,-0.77164 -3.85703,-2.09386c0.07218,-0.95404 0.55059,-1.43302 1.43246,-1.43302c0.66141,0 1.24837,0.44093 1.76316,1.32222c0.51311,0.80912 1.06427,1.21257 1.65292,1.21257c1.61488,-0.14661 2.49675,-1.39497 2.64503,-3.7468c-0.07386,-2.64502 -1.21256,-4.03943 -3.41608,-4.18715c-0.73527,0 -1.47052,0.18409 -2.20411,0.55059l-0.77106,-0.44093l0.33126,-8.92548z"></path></g><g id="shuzi_c_0" transform="translate(-50,-50)"><rect height="17.9" width="11.1" y="41.05" x="44.45" stroke-width="0" fill="#ffffff"></rect><path fill="black" d="m50.00001,41.01781c3.70189,0.36378 5.62417,3.37516 5.77067,9.03637c-0.1465,5.58989 -2.06822,8.56535 -5.77067,8.92801c-3.70135,-0.28914 -5.62582,-3.26625 -5.77068,-8.92801c0.14484,-5.66121 2.06933,-8.67259 5.77068,-9.03637zm-2.1777,12.52045c-0.07297,3.19493 0.65347,4.71915 2.17713,4.57263c1.52478,0.21783 2.24901,-1.45123 2.1777,-5.00828l0,-6.20576c0,-3.33757 -0.72646,-4.9707 -2.1777,-4.89938c-1.52421,-0.14429 -2.2501,1.27101 -2.17713,4.24646l0,7.29433z"></path></g><g id="fudian" transform="translate(-50,-50)"><ellipse fill="#1b1b1b" cx="62.35" cy="49.75" rx="2.45" ry="2.45"></ellipse></g><g id="yingao_di" transform="translate(-50,-50)"><ellipse ry="1.9" rx="1.9" cy="63" cx="49.3" fill="#1b1b1b"></ellipse></g></defs>
<text x="420" y="110" dy="30.078" text-anchor="middle" fill="#1b1b1b" style="font-weight:bold;" font-size="36" font-family="Microsoft YaHei">咏四四</text>
<use x="80" y="176" xlink:href="#diaohao_fu" xmlns:xlink="http://www.w3.org/1999/xlink"></use>
<use x="120" y="176" xlink:href="#diaohao_zimu_f" xmlns:xlink="http://www.w3.org/1999/xlink"></use>
<use x="130" y="176" xlink:href="#paihao_xian" xmlns:xlink="http://www.w3.org/1999/xlink"></use>
<use x="140" y="164" xlink:href="#shuzi_c_bian_4" xmlns:xlink="http://www.w3.org/1999/xlink"></use>
<use x="140" y="188" xlink:href="#shuzi_c_bian_4" fill="#414141" xmlns:xlink="http://www.w3.org/1999/xlink"></use>
<text x="80" y="217" dy="5.368" fill="#1b1b1b" font-size="16" font-family="Microsoft YaHei">虔敬、悠扬</text>
<text x="760" y="226" dy="-2.632" text-anchor="end" fill="#1b1b1b" font-size="16" font-family="Microsoft YaHei">朱健仁 曲</text>
<use x="83" y="266" xlink:href="#xiaojiexian" notepos="0_1_1" time="0" audio="" code="|" xmlns:xlink="http://www.w3.org/1999/xlink"></use>
<use x="112.8036809816" y="266" xlink:href="#shuzi_c_3" time="1" audio="3" notepos="0_1_2" code="3" xmlns:xlink="http://www.w3.org/1999/xlink"></use>
<text x="104.3036809816" y="304" dy="5.7035" fill="#101010" font-size="17" font-family="Microsoft YaHei" cipos="0_1_2">万</text>
<use x="144.73619631902" y="266" xlink:href="#yanyinfu" time="1" audio="" notepos="0_1_3" code="-" xmlns:xlink="http://www.w3.org/1999/xlink"></use>
<use x="176.66871165644" y="266" xlink:href="#shuzi_c_2" time="1.5" audio="2" notepos="0_1_4" code="2(." xmlns:xlink="http://www.w3.org/1999/xlink"></use>
<text x="168.16871165644" y="304" dy="5.7035" fill="#101010" font-size="17" font-family="Microsoft YaHei" cipos="0_1_4">福</text>
<use x="219.24539877301" y="266" xlink:href="#shuzi_c_3" time="0.5" audio="3" notepos="0_1_5" code="3/)" xmlns:xlink="http://www.w3.org/1999/xlink"></use>
<use x="249.0490797546" y="266" xlink:href="#xiaojiexian" notepos="0_1_6" time="0" audio="" code="|" xmlns:xlink="http://www.w3.org/1999/xlink"></use>
<use x="278.8527607362" y="266" xlink:href="#shuzi_c_1" time="1" audio="1" notepos="0_1_7" code="1" xmlns:xlink="http://www.w3.org/1999/xlink"></use>
<text x="270.3527607362" y="304" dy="5.7035" fill="#101010" font-size="17" font-family="Microsoft YaHei" cipos="0_1_7">玛</text>
<use x="310.78527607362" y="266" xlink:href="#shuzi_c_2" time="0.5" audio="2" notepos="0_1_8" code="2(/" xmlns:xlink="http://www.w3.org/1999/xlink"></use>
<text x="302.28527607362" y="304" dy="5.7035" fill="#101010" font-size="17" font-family="Microsoft YaHei" cipos="0_1_8">利</text>
<use x="332.0736196319" y="266" xlink:href="#shuzi_c_1" time="0.5" audio="1" notepos="0_1_9" code="1/)" xmlns:xlink="http://www.w3.org/1999/xlink"></use>
<use x="364.00613496933" y="266" xlink:href="#shuzi_c_6" time="1" audio="6," notepos="0_1_10" code="6," xmlns:xlink="http://www.w3.org/1999/xlink"></use>
<text x="355.50613496933" y="304" dy="5.7035" fill="#101010" font-size="17" font-family="Microsoft YaHei" cipos="0_1_10">亚</text>
<text x="372.50613496933" y="304" dy="5.7035" fill="#101010" font-size="17" font-family="Microsoft YaHei">，</text>
<use x="395.93865030675" y="266" xlink:href="#yanyinfu" time="1" audio="" notepos="0_1_11" code="-" xmlns:xlink="http://www.w3.org/1999/xlink"></use>
<use x="425.74233128834" y="266" xlink:href="#xiaojiexian" notepos="0_1_12" time="0" audio="" code="|" xmlns:xlink="http://www.w3.org/1999/xlink"></use>
<use x="455.54601226994" y="266" xlink:href="#shuzi_c_6" time="1" audio="6," notepos="0_1_13" code="6," xmlns:xlink="http://www.w3.org/1999/xlink"></use>
<text x="447.04601226994" y="304" dy="5.7035" fill="#101010" font-size="17" font-family="Microsoft YaHei" cipos="0_1_13">你</text>
<use x="487.47852760736" y="266" xlink:href="#shuzi_c_1" time="1" audio="1" notepos="0_1_14" code="1" xmlns:xlink="http://www.w3.org/1999/xlink"></use>
<text x="478.97852760736" y="304" dy="5.7035" fill="#101010" font-size="17" font-family="Microsoft YaHei" cipos="0_1_14">充</text>
<use x="519.41104294479" y="266" xlink:href="#shuzi_c_5" time="1" audio="5," notepos="0_1_15" code="5," xmlns:xlink="http://www.w3.org/1999/xlink"></use>
<text x="510.91104294479" y="304" dy="5.7035" fill="#101010" font-size="17" font-family="Microsoft YaHei" cipos="0_1_15">满</text>
<use x="551.34355828221" y="266" xlink:href="#shuzi_c_6" time="0.5" audio="6," notepos="0_1_16" code="6(,/" xmlns:xlink="http://www.w3.org/1999/xlink"></use>
<text x="542.84355828221" y="304" dy="5.7035" fill="#101010" font-size="17" font-family="Microsoft YaHei" cipos="0_1_16">圣</text>
<use x="572.63190184049" y="266" xlink:href="#shuzi_c_5" time="0.5" audio="5," notepos="0_1_17" code="5,/)" xmlns:xlink="http://www.w3.org/1999/xlink"></use>
<use x="602.43558282209" y="266" xlink:href="#xiaojiexian" notepos="0_1_18" time="0" audio="" code="|" xmlns:xlink="http://www.w3.org/1999/xlink"></use>
<use x="632.23926380368" y="266" xlink:href="#shuzi_c_3" time="1" audio="3," notepos="0_1_19" code="3," xmlns:xlink="http://www.w3.org/1999/xlink"></use>
<text x="623.73926380368" y="304" dy="5.7035" fill="#101010" font-size="17" font-family="Microsoft YaHei" cipos="0_1_19">宠</text>
<text x="640.73926380368" y="304" dy="5.7035" fill="#101010" font-size="17" font-family="Microsoft YaHei">。</text>
<use x="664.1717791411" y="266" xlink:href="#yanyinfu" time="1" audio="" notepos="0_1_20" code="-" xmlns:xlink="http://www.w3.org/1999/xlink"></use>
<use x="696.10429447853" y="266" xlink:href="#yanyinfu" time="1" audio="" notepos="0_1_21" code="-" xmlns:xlink="http://www.w3.org/1999/xlink"></use>
<use x="728.03680981595" y="266" xlink:href="#yanyinfu" time="1" audio="" notepos="0_1_22" code="-" xmlns:xlink="http://www.w3.org/1999/xlink"></use>
<use x="763" y="266" xlink:href="#xiaojiexian" notepos="0_1_23" time="0" audio="" code="|" xmlns:xlink="http://www.w3.org/1999/xlink"></use>
<use x="83" y="371" xlink:href="#xiaojiexian" notepos="0_2_1" time="0" audio="" code="|" xmlns:xlink="http://www.w3.org/1999/xlink"></use>
<use x="113.74683544304" y="371" xlink:href="#shuzi_c_3" time="1" audio="3" notepos="0_2_2" code="3" xmlns:xlink="http://www.w3.org/1999/xlink"></use>
<text x="105.24683544304" y="409" dy="5.7035" fill="#101010" font-size="17" font-family="Microsoft YaHei" cipos="0_2_2">万</text>
<use x="146.68987341772" y="371" xlink:href="#yanyinfu" time="1" audio="" notepos="0_2_3" code="-" xmlns:xlink="http://www.w3.org/1999/xlink"></use>
<use x="179.63291139241" y="371" xlink:href="#shuzi_c_2" time="1.5" audio="2" notepos="0_2_4" code="2(." xmlns:xlink="http://www.w3.org/1999/xlink"></use>
<text x="171.13291139241" y="409" dy="5.7035" fill="#101010" font-size="17" font-family="Microsoft YaHei" cipos="0_2_4">福</text>
<use x="223.55696202532" y="371" xlink:href="#shuzi_c_3" time="0.5" audio="3" notepos="0_2_5" code="3/)" xmlns:xlink="http://www.w3.org/1999/xlink"></use>
<use x="254.30379746835" y="371" xlink:href="#xiaojiexian" notepos="0_2_6" time="0" audio="" code="|" xmlns:xlink="http://www.w3.org/1999/xlink"></use>
<use x="285.05063291139" y="371" xlink:href="#shuzi_c_1" time="1" audio="1" notepos="0_2_7" code="1" xmlns:xlink="http://www.w3.org/1999/xlink"></use>
<text x="276.55063291139" y="409" dy="5.7035" fill="#101010" font-size="17" font-family="Microsoft YaHei" cipos="0_2_7">玛</text>
<use x="317.99367088608" y="371" xlink:href="#shuzi_c_2" time="1" audio="2" notepos="0_2_8" code="2" xmlns:xlink="http://www.w3.org/1999/xlink"></use>
<text x="309.49367088608" y="409" dy="5.7035" fill="#101010" font-size="17" font-family="Microsoft YaHei" cipos="0_2_8">利</text>
<use x="350.93670886076" y="371" xlink:href="#shuzi_c_3" time="1" audio="3" notepos="0_2_9" code="3" xmlns:xlink="http://www.w3.org/1999/xlink"></use>
<text x="342.43670886076" y="409" dy="5.7035" fill="#101010" font-size="17" font-family="Microsoft YaHei" cipos="0_2_9">亚</text>
<text x="359.43670886076" y="409" dy="5.7035" fill="#101010" font-size="17" font-family="Microsoft YaHei">，</text>
<use x="383.87974683544" y="371" xlink:href="#yanyinfu" time="1" audio="" notepos="0_2_10" code="-" xmlns:xlink="http://www.w3.org/1999/xlink"></use>
<use x="414.62658227848" y="371" xlink:href="#xiaojiexian" notepos="0_2_11" time="0" audio="" code="|" xmlns:xlink="http://www.w3.org/1999/xlink"></use>
<use x="445.37341772152" y="371" xlink:href="#shuzi_c_3" time="1" audio="3" notepos="0_2_12" code="3" xmlns:xlink="http://www.w3.org/1999/xlink"></use>
<text x="436.87341772152" y="409" dy="5.7035" fill="#101010" font-size="17" font-family="Microsoft YaHei" cipos="0_2_12">你</text>
<use x="478.3164556962" y="371" xlink:href="#shuzi_c_5" time="1" audio="5" notepos="0_2_13" code="5" xmlns:xlink="http://www.w3.org/1999/xlink"></use>
<text x="469.8164556962" y="409" dy="5.7035" fill="#101010" font-size="17" font-family="Microsoft YaHei" cipos="0_2_13">充</text>
<use x="511.25949367089" y="371" xlink:href="#shuzi_c_1" time="1" audio="1" notepos="0_2_14" code="1" xmlns:xlink="http://www.w3.org/1999/xlink"></use>
<text x="502.75949367089" y="409" dy="5.7035" fill="#101010" font-size="17" font-family="Microsoft YaHei" cipos="0_2_14">满</text>
<use x="544.20253164557" y="371" xlink:href="#shuzi_c_2" time="0.5" audio="2" notepos="0_2_15" code="2(/" xmlns:xlink="http://www.w3.org/1999/xlink"></use>
<text x="535.70253164557" y="409" dy="5.7035" fill="#101010" font-size="17" font-family="Microsoft YaHei" cipos="0_2_15">圣</text>
<use x="566.16455696203" y="371" xlink:href="#shuzi_c_1" time="0.5" audio="1" notepos="0_2_16" code="1/)" xmlns:xlink="http://www.w3.org/1999/xlink"></use>
<use x="596.91139240506" y="371" xlink:href="#xiaojiexian" notepos="0_2_17" time="0" audio="" code="|" xmlns:xlink="http://www.w3.org/1999/xlink"></use>
<use x="627.6582278481" y="371" xlink:href="#shuzi_c_6" time="1" audio="6," notepos="0_2_18" code="6," xmlns:xlink="http://www.w3.org/1999/xlink"></use>
<text x="619.1582278481" y="409" dy="5.7035" fill="#101010" font-size="17" font-family="Microsoft YaHei" cipos="0_2_18">宠</text>
<text x="636.1582278481" y="409" dy="5.7035" fill="#101010" font-size="17" font-family="Microsoft YaHei">。</text>
<use x="660.60126582278" y="371" xlink:href="#yanyinfu" time="1" audio="" notepos="0_2_19" code="-" xmlns:xlink="http://www.w3.org/1999/xlink"></use>
<use x="693.54430379747" y="371" xlink:href="#shuzi_c_0" time="1" audio="0" notepos="0_2_20" code="0" xmlns:xlink="http://www.w3.org/1999/xlink"></use>
<text x="685.04430379747" y="409" dy="5.7035" fill="#101010" font-size="17" font-family="Microsoft YaHei" cipos="0_2_20"></text>
<use x="726.48734177215" y="371" xlink:href="#shuzi_c_0" time="1" audio="0" notepos="0_2_21" code="0" xmlns:xlink="http://www.w3.org/1999/xlink"></use>
<text x="717.98734177215" y="409" dy="5.7035" fill="#101010" font-size="17" font-family="Microsoft YaHei" cipos="0_2_21"></text>
<use x="763" y="371" xlink:href="#xiaojiexian" notepos="0_2_22" time="0" audio="" code="|" xmlns:xlink="http://www.w3.org/1999/xlink"></use>
<line x1="213.24539877301" y1="279" x2="225.24539877301" y2="279" data-type="jianshixian" stroke-width="2" stroke="#1b1b1b"></line>
<line x1="304.78527607362" y1="279" x2="338.0736196319" y2="279" data-type="jianshixian" stroke-width="2" stroke="#1b1b1b"></line>
<line x1="545.34355828221" y1="279" x2="578.63190184049" y2="279" data-type="jianshixian" stroke-width="2" stroke="#1b1b1b"></line>
<line x1="217.55696202532" y1="384" x2="229.55696202532" y2="384" data-type="jianshixian" stroke-width="2" stroke="#1b1b1b"></line>
<line x1="538.20253164557" y1="384" x2="572.16455696203" y2="384" data-type="jianshixian" stroke-width="2" stroke="#1b1b1b"></line>
<use x="176.66871165644" y="266" xlink:href="#fudian" xmlns:xlink="http://www.w3.org/1999/xlink"></use>
<use x="364.00613496933" y="267" xlink:href="#yingao_di" xmlns:xlink="http://www.w3.org/1999/xlink"></use>
<use x="455.54601226994" y="267" xlink:href="#yingao_di" xmlns:xlink="http://www.w3.org/1999/xlink"></use>
<use x="519.41104294479" y="267" xlink:href="#yingao_di" xmlns:xlink="http://www.w3.org/1999/xlink"></use>
<use x="551.34355828221" y="271" xlink:href="#yingao_di" xmlns:xlink="http://www.w3.org/1999/xlink"></use>
<use x="572.63190184049" y="271" xlink:href="#yingao_di" xmlns:xlink="http://www.w3.org/1999/xlink"></use>
<use x="632.23926380368" y="267" xlink:href="#yingao_di" xmlns:xlink="http://www.w3.org/1999/xlink"></use>
<use x="179.63291139241" y="371" xlink:href="#fudian" xmlns:xlink="http://www.w3.org/1999/xlink"></use>
<use x="627.6582278481" y="372" xlink:href="#yingao_di" xmlns:xlink="http://www.w3.org/1999/xlink"></use>
<path d="M 177.66871165644,250 C 189.44171779141,240,206.47239263804,240,218.24539877301,250 M 218.24539877301,250 C  206.47239263804,241,189.44171779141,241,177.66871165644,250" stroke-width="0.5" stroke="#1b1b1b"></path>
<path d="M 311.78527607362,250 C 317.1717791411,240,325.68711656442,240,331.0736196319,250 M 331.0736196319,250 C  325.68711656442,241,317.1717791411,241,311.78527607362,250" stroke-width="0.5" stroke="#1b1b1b"></path>
<path d="M 552.34355828221,250 C 557.73006134969,240,566.24539877301,240,571.63190184049,250 M 571.63190184049,250 C  566.24539877301,241,557.73006134969,241,552.34355828221,250" stroke-width="0.5" stroke="#1b1b1b"></path>
<path d="M 180.63291139241,355 C 192.81012658228,345,210.37974683544,345,222.55696202532,355 M 222.55696202532,355 C  210.37974683544,346,192.81012658228,346,180.63291139241,355" stroke-width="0.5" stroke="#1b1b1b"></path>
<path d="M 545.20253164557,355 C 550.79113924051,345,559.57594936709,345,565.16455696203,355 M 565.16455696203,355 C  559.57594936709,346,550.79113924051,346,545.20253164557,355" stroke-width="0.5" stroke="#1b1b1b"></path>
<g id="custom"></g></svg>
