<svg width="840" height="630" xmlns="http://www.w3.org/2000/svg"><rect height="100%" width="100%" fill="#fff"/><defs><g id="a" fill="#1b1b1b"><path d="M63.9 57.812h-8.819v-1.7h3.455V44.355L55 45.4v-1.802L60.466 42v14.112H63.9v1.7z" transform="translate(-50 -50)"/><path stroke-width="33" d="M68 46.859h11v2H68zM68 51.325h11v2H68z" transform="translate(-50 -50)"/></g><path d="M56.3 56.673q-2.296 1.33-5.182 1.33-3.333 0-5.376-2.128t-2.042-5.67q0-3.583 2.256-5.896t5.771-2.313q2.48 0 4.207.798v2.15q-1.829-1.167-4.39-1.167-2.5 0-4.135 1.73t-1.636 4.554q0 2.928 1.504 4.545t4.044 1.617q1.768 0 2.987-.676v-4.196h-3.333v-1.76H56.3v7.082z" fill="#1b1b1b" transform="translate(-50 -50)" id="b"/><path fill="#1b1b1b" stroke-width="33" stroke-linejoin="null" stroke-linecap="null" d="M51 49h21v2H51z" transform="translate(-50 -50)" id="c"/><path d="M54.966 54.053h-1.772v3.135h-2.551v-3.135h-5.61v-2.021l6.161-9.22h2v8.928h1.773v2.313zm-4.323-2.313V47.31l-2.81 4.431h2.81z" transform="translate(-50 -50)" id="d"/><g id="e"><path fill="#fff" stroke-width="0" d="M45.05 35.85h9.9v28.4h-9.9z" transform="translate(-50 -50)"/><path stroke-width="null" fill="#1b1b1b" d="M49.25 35.5h1.5v29h-1.5z" transform="translate(-50 -50)"/></g><g id="f"><path stroke-width="0" fill="#fff" d="M44.45 41.05h11.1v17.9h-11.1z" transform="translate(-50 -50)"/><path d="M51.674 58.969h-3.22v-12.76c-.952.344-2.27.516-3.954.516v-2.704c2.644 0 4.157-.996 4.538-2.99h2.636v17.937z" transform="translate(-50 -50)"/></g><g id="g"><path stroke-width="0" fill="#fff" d="M44.45 41.05h11.1v17.9h-11.1z" transform="translate(-50 -50)"/><path d="M55.88 43.136l-6.172 15.817h-3.527l6.132-14.921h-8.194v-2.985h11.762v2.09h-.001z" transform="translate(-50 -50)"/></g><g id="h"><path stroke-width="0" fill="#fff" d="M44.45 41.05h11.1v17.9h-11.1z" transform="translate(-50 -50)"/><path d="M50.3 43.724c-.355 0-.682.103-.981.311-.299.208-.565.502-.799.883-.233.38-.437.844-.61 1.389s-.303 1.155-.39 1.83c.45-.32.92-.58 1.41-.779a4.074 4.074 0 0 1 1.55-.298c.797 0 1.515.156 2.155.467.64.312 1.188.738 1.642 1.279.454.54.802 1.168 1.045 1.882.242.714.363 1.473.363 2.278s-.13 1.566-.389 2.284c-.26.719-.627 1.344-1.103 1.876s-1.05.954-1.72 1.266c-.671.311-1.417.467-2.24.467-.943 0-1.782-.19-2.518-.571a5.143 5.143 0 0 1-1.856-1.642c-.502-.714-.885-1.586-1.149-2.616-.263-1.03-.395-2.198-.395-3.504 0-1.523.127-2.869.383-4.037.255-1.168.636-2.148 1.142-2.94.506-.792 1.14-1.39 1.902-1.798.76-.407 1.648-.61 2.66-.61.658 0 1.27.104 1.837.311a4.57 4.57 0 0 1 1.519.922c.445.407.818.92 1.116 1.538.298.62.507 1.335.63 2.149h-3.168c-.18-1.559-.86-2.337-2.037-2.337zm-.182 6.035c-.9 0-1.814.463-2.739 1.389.026.796.11 1.51.253 2.142.143.631.333 1.168.571 1.61.238.44.526.78.864 1.018.337.238.714.357 1.13.357.363 0 .689-.082.98-.246.289-.165.536-.392.74-.682s.358-.627.466-1.012c.109-.385.163-.799.163-1.24 0-.45-.057-.876-.17-1.279a3.559 3.559 0 0 0-.486-1.064 2.458 2.458 0 0 0-.766-.727 1.94 1.94 0 0 0-1.006-.266z" transform="translate(-50 -50)"/></g><g id="i"><path stroke-width="0" fill="#fff" d="M44.45 41.05h11.1v17.9h-11.1z" transform="translate(-50 -50)"/><path d="M48.01 46.989c.65-.307 1.432-.461 2.345-.461.72 0 1.413.132 2.076.395.663.264 1.249.652 1.76 1.166.509.514.913 1.151 1.211 1.91.299.76.448 1.637.448 2.63 0 .878-.142 1.697-.428 2.457s-.687 1.418-1.206 1.976-1.148.995-1.89 1.312c-.743.316-1.566.474-2.47.474a6.347 6.347 0 0 1-2.083-.336 4.97 4.97 0 0 1-1.732-1.021c-.506-.457-.925-1.028-1.259-1.713s-.545-1.49-.632-2.412h3.188c.053.483.154.905.304 1.265.149.36.336.66.56.896.224.237.476.413.757.527.281.115.58.172.896.172.422 0 .804-.088 1.147-.264.342-.176.637-.42.883-.731.246-.312.437-.674.573-1.087s.204-.856.204-1.33c0-.58-.07-1.09-.21-1.53a3.168 3.168 0 0 0-.587-1.1 2.492 2.492 0 0 0-.896-.672 2.815 2.815 0 0 0-1.153-.23c-.975 0-1.858.443-2.649 1.33H44.73l.764-9.46h9.593v2.899h-6.852l-.225 2.938z" transform="translate(-50 -50)"/></g><g id="j"><path stroke-width="0" fill="#fff" d="M44.45 41.05h11.1v17.9h-11.1z" transform="translate(-50 -50)"/><path stroke-width="null" fill="#1b1b1b" d="M44.5 48.4h11v3.2h-11z" transform="translate(-50 -50)"/></g><g id="k"><path stroke-width="0" fill="#fff" d="M44.45 41.05h11.1v17.9h-11.1z" transform="translate(-50 -50)"/><path d="M54.932 45.696a4.687 4.687 0 0 1-.392 1.862c-.13.3-.294.583-.49.849a3.478 3.478 0 0 1-.686.699c.383.2.723.455 1.02.764.295.31.543.656.744 1.039.2.383.353.793.457 1.228.105.436.157.88.157 1.333 0 .801-.148 1.537-.444 2.208s-.702 1.246-1.215 1.724c-.514.48-1.124.852-1.83 1.117s-1.463.399-2.273.399c-.818 0-1.568-.13-2.247-.392a5.309 5.309 0 0 1-1.77-1.104 5.25 5.25 0 0 1-1.195-1.725c-.297-.675-.466-1.426-.51-2.254h3.2c0 .392.055.762.164 1.11.109.35.27.654.483.915.214.262.477.469.79.621.314.152.676.229 1.085.229.392 0 .749-.07 1.072-.21.322-.139.596-.333.823-.58.226-.25.4-.545.523-.89a3.36 3.36 0 0 0 .183-1.13c0-.418-.064-.8-.19-1.15a2.407 2.407 0 0 0-.562-.894 2.592 2.592 0 0 0-.914-.582 3.505 3.505 0 0 0-1.261-.209h-1.307v-2.6h.993c.819 0 1.43-.216 1.836-.647.405-.43.607-1.017.607-1.757 0-.653-.17-1.147-.51-1.483-.339-.335-.822-.503-1.45-.503-1.297 0-2.038.836-2.22 2.508H44.44c.096-.836.296-1.572.601-2.208a5.183 5.183 0 0 1 1.163-1.6 4.718 4.718 0 0 1 1.62-.974 5.784 5.784 0 0 1 1.96-.327c.784 0 1.492.113 2.124.34a4.748 4.748 0 0 1 1.62.954c.448.41.795.895 1.039 1.457.243.563.365 1.183.365 1.863z" transform="translate(-50 -50)"/></g><g id="l"><path stroke-width="0" fill="#fff" d="M44.45 41.05h11.1v17.9h-11.1z" transform="translate(-50 -50)"/><path d="M56.19 55.052h-2.21v3.907H50.8v-3.907h-6.99v-2.52l7.679-11.49h2.492v11.127h2.21v2.883zm-5.389-2.883v-5.524l-3.503 5.524h3.503z" transform="translate(-50 -50)"/></g><g id="m"><path stroke-width="0" fill="#fff" d="M44.45 41.05h11.1v17.9h-11.1z" transform="translate(-50 -50)"/><path d="M55.876 58.92H44.124c0-1.515.314-2.746.944-3.695.345-.505.806-1.06 1.382-1.662a23.24 23.24 0 0 1 2.14-1.94 40.302 40.302 0 0 0 1.909-1.636c.518-.478.935-.928 1.25-1.35.314-.42.54-.835.678-1.242s.206-.847.206-1.317c0-.744-.206-1.323-.618-1.735-.413-.412-1.009-.618-1.789-.618a2.219 2.219 0 0 0-1.695.771 3.255 3.255 0 0 0-.565.95c-.15.378-.244.819-.28 1.324H44.47c.071-.86.257-1.642.559-2.347s.702-1.303 1.203-1.795a5.272 5.272 0 0 1 1.775-1.143c.682-.27 1.436-.406 2.26-.406.887 0 1.677.129 2.373.386.696.257 1.279.611 1.749 1.063.47.452.829.984 1.077 1.596.248.612.372 1.276.372 1.994 0 .665-.089 1.277-.266 1.835a5.85 5.85 0 0 1-.798 1.596c-.336.46-.837 1.037-1.502 1.728-.665.691-1.48 1.44-2.446 2.247-.284.24-.647.56-1.09.964a9.469 9.469 0 0 0-1.304 1.496h7.445v2.937z" transform="translate(-50 -50)"/></g><ellipse ry="1.9" rx="1.9" cy="63" cx="49.3" fill="#1b1b1b" id="n" transform="translate(-50 -50)"/><ellipse fill="#1b1b1b" cx="62.35" cy="49.75" rx="2.45" ry="2.45" id="o" transform="translate(-50 -50)"/><path stroke-width="33" d="M41.542 35.032c.13-.074.334-.018.408.149.037.074.037.13.037 1.428 0 .76 0 1.372.019 1.372 0 0 .167-.074.37-.148.427-.167.483-.186.594-.093.13.093.13.111.13.853 0 .63 0 .686-.037.742-.019.037-.056.074-.074.093-.037.018-.26.13-.52.222l-.463.204-.019 1.502c0 .816 0 1.502.019 1.502 0 0 .167-.074.37-.148.427-.167.483-.185.594-.093.13.093.13.112.13.853 0 .631 0 .687-.037.742-.019.037-.056.074-.074.093a4.94 4.94 0 0 1-.52.223l-.463.204-.019 1.557c0 1.41-.018 1.577-.037 1.632a.331.331 0 0 1-.575 0c-.018-.055-.037-.204-.037-1.502v-1.428l-.797.315-.78.316v1.502c0 1.595 0 1.558-.092 1.65-.037.056-.167.112-.222.112-.075 0-.204-.056-.242-.112-.092-.092-.092-.055-.092-1.502 0-.76 0-1.372-.019-1.372 0 0-.167.074-.37.148-.427.167-.483.186-.594.093-.13-.093-.13-.111-.13-.853 0-.63 0-.686.037-.742.019-.037.056-.074.074-.093.037-.018.26-.13.52-.222l.482-.204v-1.502c0-.816 0-1.503-.019-1.503 0 0-.167.075-.37.149-.427.167-.483.185-.594.093-.13-.093-.13-.112-.13-.854 0-.63 0-.686.037-.741.019-.037.056-.075.074-.093.037-.019.26-.13.52-.223l.482-.204v-1.557c0-1.41.018-1.577.037-1.632a.331.331 0 0 1 .575 0c.018.055.037.204.037 1.502l.018 1.428.78-.316.778-.315v-1.502c0-1.41 0-1.502.037-1.576.037-.075.074-.112.167-.149zm-.204 6.584v-1.502l-.797.315-.78.315V43.767l.056-.018c.038-.019.39-.167.798-.316l.723-.296v-1.521z" fill="#1b1b1b" transform="translate(-50 -50)" id="p"/><path stroke="#1b1b1b" d="M.75.75s-8.394.57-12.219 8.884" stroke-linecap="round" stroke-linejoin="null" stroke-width="1.2" fill="none" id="q"/><path stroke="#1b1b1b" d="M.75.75s7.642.57 11.124 8.884" stroke-linecap="round" stroke-linejoin="null" stroke-width="1.2" fill="none" id="r"/></defs><text x="420" y="46" dy="35.091" text-anchor="middle" fill="#1b1b1b" font-size="42" font-family="PingFang SC, Microsoft YaHei, STHeiti, Open Sans, sans-serif" font-weight="700">咏二九</text><use x="16" y="118" xlink:href="#a" xmlns:xlink="http://www.w3.org/1999/xlink"/><use x="56" y="118" xlink:href="#b" xmlns:xlink="http://www.w3.org/1999/xlink"/><use x="66" y="118" xlink:href="#c" xmlns:xlink="http://www.w3.org/1999/xlink"/><use x="76" y="106" xlink:href="#d" xmlns:xlink="http://www.w3.org/1999/xlink"/><use x="76" y="130" xlink:href="#d" fill="#414141" xmlns:xlink="http://www.w3.org/1999/xlink"/><text x="16" y="159" dy="5.368" fill="#1b1b1b" font-size="16" font-family="PingFang SC, Microsoft YaHei, STHeiti, Open Sans, sans-serif">愉快、悠扬</text><text x="824" y="168" dy="-2.632" text-anchor="end" fill="#1b1b1b" font-size="16" font-family="PingFang SC, Microsoft YaHei, STHeiti, Open Sans, sans-serif">朱健仁 曲</text><use x="19" y="208" xlink:href="#e" xmlns:xlink="http://www.w3.org/1999/xlink"/><use x="54" y="208" xlink:href="#f" xmlns:xlink="http://www.w3.org/1999/xlink"/><text x="42" y="246" dy="8.052" fill="#101010" font-size="24" font-family="PingFang SC, Microsoft YaHei, STHeiti, Open Sans, sans-serif">上</text><use x="91.5" y="208" xlink:href="#g" xmlns:xlink="http://www.w3.org/1999/xlink"/><use x="129" y="208" xlink:href="#h" xmlns:xlink="http://www.w3.org/1999/xlink"/><text x="117" y="246" dy="8.052" fill="#101010" font-size="24" font-family="PingFang SC, Microsoft YaHei, STHeiti, Open Sans, sans-serif">主</text><text x="141" y="246" dy="8.052" fill="#101010" font-size="24" font-family="PingFang SC, Microsoft YaHei, STHeiti, Open Sans, sans-serif">，</text><use x="179" y="208" xlink:href="#h" xmlns:xlink="http://www.w3.org/1999/xlink"/><text x="167" y="246" dy="8.052" fill="#101010" font-size="24" font-family="PingFang SC, Microsoft YaHei, STHeiti, Open Sans, sans-serif">我</text><use x="216.5" y="208" xlink:href="#g" xmlns:xlink="http://www.w3.org/1999/xlink"/><use x="251.5" y="208" xlink:href="#e" xmlns:xlink="http://www.w3.org/1999/xlink"/><use x="286.5" y="208" xlink:href="#f" xmlns:xlink="http://www.w3.org/1999/xlink"/><text x="274.5" y="246" dy="8.052" fill="#101010" font-size="24" font-family="PingFang SC, Microsoft YaHei, STHeiti, Open Sans, sans-serif">称</text><use x="324" y="208" xlink:href="#g" xmlns:xlink="http://www.w3.org/1999/xlink"/><text x="312" y="246" dy="8.052" fill="#101010" font-size="24" font-family="PingFang SC, Microsoft YaHei, STHeiti, Open Sans, sans-serif">扬</text><use x="361.5" y="208" xlink:href="#h" xmlns:xlink="http://www.w3.org/1999/xlink"/><text x="349.5" y="246" dy="8.052" fill="#101010" font-size="24" font-family="PingFang SC, Microsoft YaHei, STHeiti, Open Sans, sans-serif">祢</text><text x="373.5" y="246" dy="8.052" fill="#101010" font-size="24" font-family="PingFang SC, Microsoft YaHei, STHeiti, Open Sans, sans-serif">，</text><use x="411.5" y="208" xlink:href="#h" xmlns:xlink="http://www.w3.org/1999/xlink"/><text x="399.5" y="246" dy="8.052" fill="#101010" font-size="24" font-family="PingFang SC, Microsoft YaHei, STHeiti, Open Sans, sans-serif">因</text><use x="449" y="208" xlink:href="#h" xmlns:xlink="http://www.w3.org/1999/xlink"/><text x="437" y="246" dy="8.052" fill="#101010" font-size="24" font-family="PingFang SC, Microsoft YaHei, STHeiti, Open Sans, sans-serif">为</text><use x="484" y="208" xlink:href="#e" xmlns:xlink="http://www.w3.org/1999/xlink"/><use x="19" y="320" xlink:href="#e" xmlns:xlink="http://www.w3.org/1999/xlink"/><use x="54" y="320" xlink:href="#i" xmlns:xlink="http://www.w3.org/1999/xlink"/><text x="42" y="358" dy="8.052" fill="#101010" font-size="24" font-family="PingFang SC, Microsoft YaHei, STHeiti, Open Sans, sans-serif">祢</text><use x="91.5" y="320" xlink:href="#j" xmlns:xlink="http://www.w3.org/1999/xlink"/><use x="129" y="320" xlink:href="#i" xmlns:xlink="http://www.w3.org/1999/xlink"/><text x="117" y="358" dy="8.052" fill="#101010" font-size="24" font-family="PingFang SC, Microsoft YaHei, STHeiti, Open Sans, sans-serif">救</text><use x="154" y="320" xlink:href="#i" xmlns:xlink="http://www.w3.org/1999/xlink"/><text x="142" y="358" dy="8.052" fill="#101010" font-size="24" font-family="PingFang SC, Microsoft YaHei, STHeiti, Open Sans, sans-serif">拔</text><use x="191.5" y="320" xlink:href="#h" xmlns:xlink="http://www.w3.org/1999/xlink"/><text x="179.5" y="358" dy="8.052" fill="#101010" font-size="24" font-family="PingFang SC, Microsoft YaHei, STHeiti, Open Sans, sans-serif">了</text><use x="216.5" y="320" xlink:href="#k" xmlns:xlink="http://www.w3.org/1999/xlink"/><text x="204.5" y="358" dy="8.052" fill="#101010" font-size="24" font-family="PingFang SC, Microsoft YaHei, STHeiti, Open Sans, sans-serif">我</text><text x="228.5" y="358" dy="8.052" fill="#101010" font-size="24" font-family="PingFang SC, Microsoft YaHei, STHeiti, Open Sans, sans-serif">。</text><use x="251.5" y="320" xlink:href="#e" xmlns:xlink="http://www.w3.org/1999/xlink"/><use x="286.5" y="320" xlink:href="#k" xmlns:xlink="http://www.w3.org/1999/xlink"/><use x="324" y="320" xlink:href="#j" xmlns:xlink="http://www.w3.org/1999/xlink"/><use x="361.5" y="320" xlink:href="#j" xmlns:xlink="http://www.w3.org/1999/xlink"/><use x="399" y="320" xlink:href="#j" xmlns:xlink="http://www.w3.org/1999/xlink"/><use x="434" y="320" xlink:href="#e" xmlns:xlink="http://www.w3.org/1999/xlink"/><use x="19" y="432" xlink:href="#e" xmlns:xlink="http://www.w3.org/1999/xlink"/><use x="54" y="432" xlink:href="#l" xmlns:xlink="http://www.w3.org/1999/xlink"/><text x="42" y="470" dy="8.052" fill="#101010" font-size="24" font-family="PingFang SC, Microsoft YaHei, STHeiti, Open Sans, sans-serif">上</text><use x="91.5" y="432" xlink:href="#m" xmlns:xlink="http://www.w3.org/1999/xlink"/><use x="129" y="432" xlink:href="#l" xmlns:xlink="http://www.w3.org/1999/xlink"/><text x="117" y="470" dy="8.052" fill="#101010" font-size="24" font-family="PingFang SC, Microsoft YaHei, STHeiti, Open Sans, sans-serif">主</text><text x="141" y="470" dy="8.052" fill="#101010" font-size="24" font-family="PingFang SC, Microsoft YaHei, STHeiti, Open Sans, sans-serif">，</text><use x="179" y="432" xlink:href="#m" xmlns:xlink="http://www.w3.org/1999/xlink"/><text x="167" y="470" dy="8.052" fill="#101010" font-size="24" font-family="PingFang SC, Microsoft YaHei, STHeiti, Open Sans, sans-serif">我</text><use x="216.5" y="432" xlink:href="#h" xmlns:xlink="http://www.w3.org/1999/xlink"/><use x="251.5" y="432" xlink:href="#e" xmlns:xlink="http://www.w3.org/1999/xlink"/><use x="291.5" y="432" xlink:href="#i" xmlns:xlink="http://www.w3.org/1999/xlink"/><text x="279.5" y="470" dy="8.052" fill="#101010" font-size="24" font-family="PingFang SC, Microsoft YaHei, STHeiti, Open Sans, sans-serif">称</text><use x="339" y="432" xlink:href="#i" xmlns:xlink="http://www.w3.org/1999/xlink"/><text x="327" y="470" dy="8.052" fill="#101010" font-size="24" font-family="PingFang SC, Microsoft YaHei, STHeiti, Open Sans, sans-serif">扬</text><use x="381.5" y="432" xlink:href="#k" xmlns:xlink="http://www.w3.org/1999/xlink"/><text x="369.5" y="470" dy="8.052" fill="#101010" font-size="24" font-family="PingFang SC, Microsoft YaHei, STHeiti, Open Sans, sans-serif">祢</text><text x="393.5" y="470" dy="8.052" fill="#101010" font-size="24" font-family="PingFang SC, Microsoft YaHei, STHeiti, Open Sans, sans-serif">，</text><use x="431.5" y="432" xlink:href="#k" xmlns:xlink="http://www.w3.org/1999/xlink"/><text x="419.5" y="470" dy="8.052" fill="#101010" font-size="24" font-family="PingFang SC, Microsoft YaHei, STHeiti, Open Sans, sans-serif">因</text><use x="469" y="432" xlink:href="#k" xmlns:xlink="http://www.w3.org/1999/xlink"/><text x="457" y="470" dy="8.052" fill="#101010" font-size="24" font-family="PingFang SC, Microsoft YaHei, STHeiti, Open Sans, sans-serif">为</text><use x="504" y="432" xlink:href="#e" xmlns:xlink="http://www.w3.org/1999/xlink"/><use x="19" y="544" xlink:href="#e" xmlns:xlink="http://www.w3.org/1999/xlink"/><use x="59" y="544" xlink:href="#i" xmlns:xlink="http://www.w3.org/1999/xlink"/><text x="47" y="582" dy="8.052" fill="#101010" font-size="24" font-family="PingFang SC, Microsoft YaHei, STHeiti, Open Sans, sans-serif">祢</text><use x="101.5" y="544" xlink:href="#k" xmlns:xlink="http://www.w3.org/1999/xlink"/><use x="139" y="544" xlink:href="#m" xmlns:xlink="http://www.w3.org/1999/xlink"/><text x="127" y="582" dy="8.052" fill="#101010" font-size="24" font-family="PingFang SC, Microsoft YaHei, STHeiti, Open Sans, sans-serif">救</text><use x="164" y="544" xlink:href="#m" xmlns:xlink="http://www.w3.org/1999/xlink"/><text x="152" y="582" dy="8.052" fill="#101010" font-size="24" font-family="PingFang SC, Microsoft YaHei, STHeiti, Open Sans, sans-serif">拔</text><use x="201.5" y="544" xlink:href="#g" xmlns:xlink="http://www.w3.org/1999/xlink"/><text x="189.5" y="582" dy="8.052" fill="#101010" font-size="24" font-family="PingFang SC, Microsoft YaHei, STHeiti, Open Sans, sans-serif">了</text><use x="226.5" y="544" xlink:href="#h" xmlns:xlink="http://www.w3.org/1999/xlink"/><text x="214.5" y="582" dy="8.052" fill="#101010" font-size="24" font-family="PingFang SC, Microsoft YaHei, STHeiti, Open Sans, sans-serif">我</text><text x="238.5" y="582" dy="8.052" fill="#101010" font-size="24" font-family="PingFang SC, Microsoft YaHei, STHeiti, Open Sans, sans-serif">。</text><use x="261.5" y="544" xlink:href="#e" xmlns:xlink="http://www.w3.org/1999/xlink"/><use x="296.5" y="544" xlink:href="#h" xmlns:xlink="http://www.w3.org/1999/xlink"/><use x="334" y="544" xlink:href="#j" xmlns:xlink="http://www.w3.org/1999/xlink"/><use x="371.5" y="544" xlink:href="#j" xmlns:xlink="http://www.w3.org/1999/xlink"/><use x="409" y="544" xlink:href="#j" xmlns:xlink="http://www.w3.org/1999/xlink"/><use x="444" y="544" xlink:href="#e" xmlns:xlink="http://www.w3.org/1999/xlink"/><path data-type="jianshixian" stroke-width="2" stroke="#1b1b1b" d="M85.5 221h12M173 221h12M210.5 221h12M318 221h12M405.5 221h12M443 221h12M123 333h37M185.5 333h37M280.5 333h12M85.5 445h12M173 445h12M210.5 445h12M333 445h12M425.5 445h12M463 445h12M133 557h37M195.5 557h37"/><use x="91.5" y="213" xlink:href="#n" xmlns:xlink="http://www.w3.org/1999/xlink"/><use x="129" y="209" xlink:href="#n" xmlns:xlink="http://www.w3.org/1999/xlink"/><use x="129" y="208" xlink:href="#o" xmlns:xlink="http://www.w3.org/1999/xlink"/><use x="179" y="213" xlink:href="#n" xmlns:xlink="http://www.w3.org/1999/xlink"/><use x="216.5" y="213" xlink:href="#n" xmlns:xlink="http://www.w3.org/1999/xlink"/><use x="324" y="213" xlink:href="#n" xmlns:xlink="http://www.w3.org/1999/xlink"/><use x="361.5" y="209" xlink:href="#n" xmlns:xlink="http://www.w3.org/1999/xlink"/><use x="361.5" y="208" xlink:href="#o" xmlns:xlink="http://www.w3.org/1999/xlink"/><use x="411.5" y="213" xlink:href="#n" xmlns:xlink="http://www.w3.org/1999/xlink"/><use x="449" y="213" xlink:href="#n" xmlns:xlink="http://www.w3.org/1999/xlink"/><use x="54" y="321" xlink:href="#n" xmlns:xlink="http://www.w3.org/1999/xlink"/><use x="129" y="325" xlink:href="#n" xmlns:xlink="http://www.w3.org/1999/xlink"/><use x="154" y="325" xlink:href="#n" xmlns:xlink="http://www.w3.org/1999/xlink"/><use x="191.5" y="325" xlink:href="#n" xmlns:xlink="http://www.w3.org/1999/xlink"/><use x="216.5" y="325" xlink:href="#n" xmlns:xlink="http://www.w3.org/1999/xlink"/><use x="286.5" y="325" xlink:href="#n" xmlns:xlink="http://www.w3.org/1999/xlink"/><use x="56.5" y="433" xlink:href="#n" xmlns:xlink="http://www.w3.org/1999/xlink"/><use x="91.5" y="437" xlink:href="#n" xmlns:xlink="http://www.w3.org/1999/xlink"/><use x="131.5" y="433" xlink:href="#n" xmlns:xlink="http://www.w3.org/1999/xlink"/><use x="129" y="432" xlink:href="#o" xmlns:xlink="http://www.w3.org/1999/xlink"/><use x="179" y="437" xlink:href="#n" xmlns:xlink="http://www.w3.org/1999/xlink"/><use x="216.5" y="437" xlink:href="#n" xmlns:xlink="http://www.w3.org/1999/xlink"/><use x="291.5" y="433" xlink:href="#n" xmlns:xlink="http://www.w3.org/1999/xlink"/><use x="291.5" y="432" xlink:href="#p" xmlns:xlink="http://www.w3.org/1999/xlink"/><use x="339" y="437" xlink:href="#n" xmlns:xlink="http://www.w3.org/1999/xlink"/><use x="339" y="432" xlink:href="#p" xmlns:xlink="http://www.w3.org/1999/xlink"/><use x="381.5" y="433" xlink:href="#n" xmlns:xlink="http://www.w3.org/1999/xlink"/><use x="381.5" y="432" xlink:href="#o" xmlns:xlink="http://www.w3.org/1999/xlink"/><use x="431.5" y="437" xlink:href="#n" xmlns:xlink="http://www.w3.org/1999/xlink"/><use x="469" y="437" xlink:href="#n" xmlns:xlink="http://www.w3.org/1999/xlink"/><use x="59" y="545" xlink:href="#n" xmlns:xlink="http://www.w3.org/1999/xlink"/><use x="59" y="544" xlink:href="#p" xmlns:xlink="http://www.w3.org/1999/xlink"/><use x="101.5" y="545" xlink:href="#n" xmlns:xlink="http://www.w3.org/1999/xlink"/><use x="201.5" y="549" xlink:href="#n" xmlns:xlink="http://www.w3.org/1999/xlink"/><use x="226.5" y="549" xlink:href="#n" xmlns:xlink="http://www.w3.org/1999/xlink"/><use x="296.5" y="545" xlink:href="#n" xmlns:xlink="http://www.w3.org/1999/xlink"/><path d="M55 192c10.25-10 25.25-10 35.5 0m0 0c-10.25-9-25.25-9-35.5 0M180 192c10.25-10 25.25-10 35.5 0m0 0c-10.25-9-25.25-9-35.5 0M287.5 192c10.25-10 25.25-10 35.5 0m0 0c-10.25-9-25.25-9-35.5 0M412.5 192c10.25-10 25.25-10 35.5 0m0 0c-10.25-9-25.25-9-35.5 0" stroke-width=".5" stroke="#1b1b1b"/><use x="228.5" y="294.05" xlink:href="#q" xmlns:xlink="http://www.w3.org/1999/xlink"/><use x="387" y="294.05" xlink:href="#r" xmlns:xlink="http://www.w3.org/1999/xlink"/><path stroke-width="1.2" stroke="#1b1b1b" fill="none" d="M229.3 294.8H388"/><path d="M55 416c10.25-10 25.25-10 35.5 0m0 0c-10.25-9-25.25-9-35.5 0M180 416c10.25-10 25.25-10 35.5 0m0 0c-10.25-9-25.25-9-35.5 0M60 528c11.75-10 28.75-10 40.5 0m0 0c-11.75-9-28.75-9-40.5 0M227.5 528c20-10 48-10 68 0m0 0c-20-9-48-9-68 0" stroke-width=".5" stroke="#1b1b1b"/></svg>